<svg xmlns="http://www.w3.org/2000/svg" xmlns:xlink="http://www.w3.org/1999/xlink" width="1200" height="676" viewBox="0 0 1200 676">
  <defs>
    <style>
      .cls-1 {
        clip-path: url(#clip-banner);
      }

      .cls-2 {
        fill: #d9244f;
      }

      .cls-3 {
        fill: #0d0d0d;
      }

      .cls-4 {
        fill: #fff;
      }
    </style>
    <clipPath id="clip-banner">
      <rect width="1200" height="676"/>
    </clipPath>
  </defs>
  <g id="banner" class="cls-1">
    <rect class="cls-4" width="1200" height="676"/>
    <g id="Group_1" data-name="Group 1" transform="translate(61.56 17.76)">
      <path id="Path_3" data-name="Path 3" class="cls-2" d="M-81.9-49.156c-6.6,0-8.644-2.73-8.644-6.711,0-2.843,1.82-5.687,5.914-8.53l11.146,12.625A14.421,14.421,0,0,1-81.9-49.156Zm32.643-3.64a192.67,192.67,0,0,0,11.6-17.743l-16.606-8.644c-2.616,4.891-4.891,8.985-7.052,12.511L-78.376-86.462c-1.82-2.047-2.616-3.412-2.616-5.573,0-1.934,2.047-3.412,5.573-3.412,6.824,0,11.943,2.047,17.857,5.346l8.985-16.379a48.949,48.949,0,0,0-26.615-7.279c-15.81,0-27.411,7.052-27.411,21.383,0,6.142,3.185,11.033,7.166,15.582l.682.8c-8.53,4.777-16.606,12.511-16.606,22.862,0,15.241,10.464,21.5,24,21.5a40.966,40.966,0,0,0,24.8-7.734l5.687,6.483H-31.97ZM.219-49.156c-6.6,0-8.644-2.73-8.644-6.711,0-2.843,1.82-5.687,5.914-8.53L8.635-51.772A14.421,14.421,0,0,1,.219-49.156ZM32.862-52.8a192.672,192.672,0,0,0,11.6-17.743L27.857-79.183c-2.616,4.891-4.891,8.985-7.052,12.511L3.744-86.462c-1.82-2.047-2.616-3.412-2.616-5.573,0-1.934,2.047-3.412,5.573-3.412,6.824,0,11.943,2.047,17.857,5.346l8.985-16.379A48.949,48.949,0,0,0,6.929-113.76c-15.81,0-27.411,7.052-27.411,21.383,0,6.142,3.185,11.033,7.166,15.582l.682.8c-8.53,4.777-16.606,12.511-16.606,22.862,0,15.241,10.464,21.5,24,21.5a40.966,40.966,0,0,0,24.8-7.734l5.687,6.483H50.15Z" transform="translate(583.967 393)"/>
      <path id="Path_2" data-name="Path 2" class="cls-3" d="M-387.832-62.122c-4.322,7.507-7.279,11.26-14.217,11.26-9.554,0-13.421-9.668-13.421-21.838,0-12.625,3.981-21.838,13.194-21.838,7.279,0,10.009,4.663,12.853,12.056l20.018-7.848c-5.46-15.014-13.194-23.43-32.757-23.43-21.383,0-36.4,15.469-36.4,41.06,0,23.544,12.625,41.06,36.283,41.06,18.881,0,27.752-10.123,33.1-20.587ZM-326.3-113.76c-21.611,0-36.965,14.672-36.965,41.174s15.127,40.946,36.738,40.946,36.965-14.672,36.965-41.174S-304.688-113.76-326.3-113.76Zm0,62.9c-8.872,0-14.1-7.621-14.1-21.952s5-21.724,13.876-21.724,14.1,7.621,14.1,21.952S-317.427-50.862-326.3-50.862Zm77.457-61.647h-27.866v79.618h25.819c28.207,0,42.994-10.35,42.994-40.264S-223.82-112.509-248.842-112.509Zm-.8,60.737h-4.777V-93.628h5.46c13.762,0,18.426,6.142,18.426,20.814C-230.53-57-235.876-51.772-249.639-51.772Zm116.811.341h-39.923V-65.079h23.544V-83.392h-23.544V-93.969h39.126v-18.54h-60.964v79.618h61.761Z" transform="translate(589 393)"/>
      <path id="Path_4" data-name="Path 4" class="cls-3" d="M73.371-112H6.72v19.222H29.013v60.4H51.078v-60.4H73.371Zm74.613,61.078H108.062V-64.571h23.544V-82.883H108.062V-93.46h39.126V-112H86.224v79.618h61.761Zm71.656-.682H184.381V-112H162.088v79.618h57.552Zm69.95,0H254.331V-112H232.038v79.618H289.59Z" transform="translate(636.554 392.491)"/>
    </g>
  </g>
</svg>
