<svg xmlns="http://www.w3.org/2000/svg" xmlns:xlink="http://www.w3.org/1999/xlink" width="256" height="256" viewBox="0 0 256 256">
  <defs>
    <style>
      .cls-1 {
        clip-path: url(#clip-logo_vivid_);
      }

      .cls-2 {
        fill: #fff;
      }

      .cls-3 {
        fill: #d9244f;
      }
    </style>
    <clipPath id="clip-logo_vivid_">
      <rect width="256" height="256"/>
    </clipPath>
  </defs>
  <g id="logo_vivid_" data-name="logo (vivid)" class="cls-1">
    <rect class="cls-3" width="256" height="256"/>
    <path id="Path_1" data-name="Path 1" class="cls-2" d="M-76.122-36.482c-7.891,0-10.34-3.265-10.34-8.027,0-3.4,2.177-6.8,7.075-10.2l13.333,15.1A17.25,17.25,0,0,1-76.122-36.482Zm39.047-4.354A230.47,230.47,0,0,0-23.2-62.06L-43.062-72.4c-3.129,5.85-5.85,10.748-8.435,14.966L-71.9-81.107c-2.177-2.449-3.129-4.082-3.129-6.667,0-2.313,2.449-4.082,6.667-4.082,8.163,0,14.286,2.449,21.36,6.394l10.748-19.592A58.552,58.552,0,0,0-68.1-113.76c-18.911,0-32.789,8.435-32.789,25.578,0,7.347,3.809,13.2,8.571,18.639l.816.952c-10.2,5.714-19.864,14.966-19.864,27.347,0,18.231,12.517,25.714,28.707,25.714,11.564,0,21.088-3.129,29.66-9.252l6.8,7.755h29.8Zm59.183,4.354c-7.891,0-10.34-3.265-10.34-8.027,0-3.4,2.177-6.8,7.075-10.2l13.333,15.1A17.25,17.25,0,0,1,22.108-36.482Zm39.047-4.354A230.469,230.469,0,0,0,75.032-62.06L55.169-72.4c-3.129,5.85-5.85,10.748-8.435,14.966L26.325-81.107c-2.177-2.449-3.129-4.082-3.129-6.667,0-2.313,2.449-4.082,6.667-4.082,8.163,0,14.286,2.449,21.36,6.394l10.748-19.592a58.552,58.552,0,0,0-31.836-8.707c-18.911,0-32.789,8.435-32.789,25.578,0,7.347,3.809,13.2,8.571,18.639l.816.952C-3.47-62.876-13.13-53.625-13.13-41.244c0,18.231,12.517,25.714,28.707,25.714,11.564,0,21.088-3.129,29.66-9.252l6.8,7.755h29.8Z" transform="translate(157.164 188.022) rotate(-13)"/>
  </g>
</svg>
